<svg xmlns="http://www.w3.org/2000/svg" xmlns:xlink="http://www.w3.org/1999/xlink" width="186.528" height="132.957" viewBox="0 0 186.528 132.957">
  <defs>
    <clipPath id="clip-path">
      <path id="Path_32" data-name="Path 32" d="M472.531,641.55C448.275,591.776,400.7,592.793,400,592.81c-.7-.017-48.276-1.034-72.532,48.74-5.045,10.354-8.885,38.992-20.732,40.941,0,0,32.568,42.3,93.264,40.374,60.7,1.928,93.264-40.374,93.264-40.374C481.417,680.542,477.577,651.9,472.531,641.55Z" fill="none"/>
    </clipPath>
  </defs>
  <g id="Group_1" data-name="Group 1" transform="translate(-306.736 -589.972)">
    <g id="Group_21" data-name="Group 21">
      <g id="Group_16" data-name="Group 16">
        <path id="Path_19" data-name="Path 19" d="M365.738,607.692c-7.418-10.121-18.037-16.561-29.053-17.619-5.007-.481-10.82.635-13.5,5.883-1.6,3.13-1.709,7.062-1.535,10.759a83.826,83.826,0,0,0,9.26,34.795C350.344,638.962,362.961,631.608,365.738,607.692Z" fill="#66605a"/>
        <path id="Path_20" data-name="Path 20" d="M434.262,607.692c7.418-10.121,18.037-16.561,29.053-17.619,5.007-.481,10.82.635,13.5,5.883,1.6,3.13,1.709,7.062,1.535,10.759a83.826,83.826,0,0,1-9.26,34.795C449.656,638.962,437.039,631.608,434.262,607.692Z" fill="#66605a"/>
        <g id="Group_9" data-name="Group 9">
          <path id="Path_21" data-name="Path 21" d="M364.626,616.6c-5.464-7.455-13.285-12.2-21.4-12.977-3.688-.355-7.97.467-9.947,4.332-1.179,2.306-1.259,5.2-1.13,7.925a61.759,61.759,0,0,0,6.82,25.629C353.287,639.633,362.581,634.217,364.626,616.6Z" fill="#49433e"/>
          <path id="Path_22" data-name="Path 22" d="M435.374,616.6c5.464-7.455,13.285-12.2,21.4-12.977,3.688-.355,7.97.467,9.947,4.332,1.179,2.306,1.258,5.2,1.13,7.925a61.759,61.759,0,0,1-6.82,25.629C446.713,639.633,437.419,634.217,435.374,616.6Z" fill="#49433e"/>
        </g>
        <g id="Group_10" data-name="Group 10">
          <path id="Path_23" data-name="Path 23" d="M400.453,712.562h-.906a31.376,31.376,0,0,1-8.016,10.257c2.766.1,5.575.138,8.469.046,2.894.092,5.7.054,8.469-.046A31.362,31.362,0,0,1,400.453,712.562Z" fill="#e0d1bf"/>
          <path id="Path_24" data-name="Path 24" d="M493.264,682.491c-11.847-1.949-15.687-30.587-20.733-40.941C448.275,591.776,400.7,592.793,400,592.81c-.7-.017-48.276-1.034-72.532,48.74-5.045,10.354-8.885,38.992-20.732,40.941,0,0,29.558,38.335,84.8,40.328a31.376,31.376,0,0,0,8.016-10.257h.906a31.362,31.362,0,0,0,8.016,10.257C463.706,720.826,493.264,682.491,493.264,682.491Z" fill="#fffaf3"/>
        </g>
        <path id="Path_25" data-name="Path 25" d="M388.885,698.393l8.322-24.263c.517-1.822,5.069-1.822,5.585,0l8.323,24.263Z" fill="#a59c92" opacity="0.4"/>
        <g id="Group_15" data-name="Group 15">
          <g id="Group_14" data-name="Group 14" clip-path="url(#clip-path)">
            <g id="Group_11" data-name="Group 11">
              <path id="Path_26" data-name="Path 26" d="M487.651,640.5c-14.945-19.939-41.838-26.217-62.262-14.534C413.627,632.7,404.655,645.038,400,659.234c-4.655-14.2-13.627-26.537-25.389-33.265-20.424-11.683-47.317-5.4-62.262,14.534,0,0,31.551-57.831,87.651-57.831S487.651,640.5,487.651,640.5Z" fill="#a59c92"/>
            </g>
            <g id="Group_12" data-name="Group 12" opacity="0.5" style="mix-blend-mode: multiply;isolation: isolate">
              <path id="Path_27" data-name="Path 27" d="M487.651,612.846c-14.945-25.423-41.838-20.188-62.262-5.292-11.762,8.578-20.734,24.313-25.389,42.413-4.655-18.1-13.627-33.835-25.389-42.413-20.424-14.9-47.317-20.131-62.262,5.292,0,0,31.551-60.494,87.651-60.494S487.651,612.846,487.651,612.846Z" fill="#a59c92"/>
            </g>
            <g id="Group_13" data-name="Group 13">
              <path id="Path_28" data-name="Path 28" d="M337.436,664.715c-.86.7-1.735,1.378-2.631,2.013-7.074,5.022-16.127,7.38-23.25,2.468-9.457,5.987-15.091,15.23-14.125,26.011,1.859,20.74,20.093,25.861,41.719,28.771,10.022,1.348,21.841.663,30.88,5.006-6.962-8.594-10.665-7.936-9.826-20.144a49.3,49.3,0,0,1,5.839-20.134A75.37,75.37,0,0,1,337.436,664.715Z" fill="#66605a"/>
              <path id="Path_29" data-name="Path 29" d="M498.559,671.965c-1.647-3.5-6.858-5.015-10.114-2.769-7.123,4.912-16.176,2.554-23.251-2.468a54.06,54.06,0,0,1-4.586-3.7,75.411,75.411,0,0,1-27.35,24.431A49.064,49.064,0,0,1,439.8,708.84c.839,12.208-2.864,11.55-9.826,20.144,33.54-4.357,59.612-14.615,68.438-45.761C499.457,679.525,500.206,675.459,498.559,671.965Z" fill="#66605a"/>
              <path id="Path_30" data-name="Path 30" d="M374.441,678.062c5.11-4.434,11.6-7.621,14.024-14.8,3.164-9.394-3.365-20.547-11.3-22.765s-16.139,2.168-22.8,8c-5.822,5.1-10.995,11.364-16.925,16.215a75.37,75.37,0,0,0,28.606,23.991A38.642,38.642,0,0,1,374.441,678.062Z" fill="#544f4a"/>
              <path id="Path_31" data-name="Path 31" d="M460.608,663.028c-5.133-4.561-9.8-10-14.97-14.528-6.666-5.836-14.87-10.223-22.8-8s-14.463,13.371-11.3,22.765c2.419,7.18,8.914,10.367,14.024,14.8a38,38,0,0,1,7.7,9.4A75.411,75.411,0,0,0,460.608,663.028Z" fill="#544f4a"/>
            </g>
          </g>
        </g>
      </g>
      <g id="Group_20" data-name="Group 20">
        <path id="Path_33" data-name="Path 33" d="M402.9,711.046l9.773-12.019c2.082-2.56-26.847-2.56-24.765,0l9.773,12.019A3.277,3.277,0,0,0,402.9,711.046Z" fill="#452d3b"/>
        <g id="Group_19" data-name="Group 19">
          <g id="Group_17" data-name="Group 17">
            <path id="Path_34" data-name="Path 34" d="M376.306,665.935a9.664,9.664,0,1,1-9.664-9.664A9.664,9.664,0,0,1,376.306,665.935Z" fill="#452d3b"/>
            <path id="Path_35" data-name="Path 35" d="M366.642,663.323a3.668,3.668,0,1,1-3.668-3.668A3.668,3.668,0,0,1,366.642,663.323Z" fill="#f1e4d3"/>
          </g>
          <g id="Group_18" data-name="Group 18">
            <path id="Path_36" data-name="Path 36" d="M421.625,665.935a9.664,9.664,0,1,0,9.664-9.664A9.664,9.664,0,0,0,421.625,665.935Z" fill="#452d3b"/>
            <path id="Path_37" data-name="Path 37" d="M431.069,663.323a3.668,3.668,0,1,1-3.668-3.668A3.668,3.668,0,0,1,431.069,663.323Z" fill="#f1e4d3"/>
          </g>
        </g>
      </g>
    </g>
    <g id="Group_22" data-name="Group 22" style="mix-blend-mode: multiply;isolation: isolate">
      <path id="Path_38" data-name="Path 38" d="M365.407,601.775q-1.568.8-3.15,1.7c-7.079-7.677-16.177-12.5-25.572-13.406-5.007-.481-10.82.635-13.5,5.883-1.6,3.13-1.709,7.061-1.535,10.759a84.666,84.666,0,0,0,7.6,31.4c-.6,1.124-1.2,2.25-1.777,3.431-3.17,6.506-5.866,20.227-10.369,30.014-2.664,5.789-5.96,10.2-10.363,10.927,0,0,18.7,24.253,54.132,35.19a118.09,118.09,0,0,0,30.662,5.138h0q1.952.071,3.938.089c1.5.007,3,.006,4.529-.043V592.81C399.6,592.8,383.557,592.478,365.407,601.775Z" fill="#f1e4d3"/>
    </g>
  </g>
</svg>
